<?xml version="1.0" encoding="UTF-8" standalone="no"?>
<!DOCTYPE svg PUBLIC "-//W3C//DTD SVG 1.1//EN" "http://www.w3.org/Graphics/SVG/1.1/DTD/svg11.dtd">
<svg width="100%" height="100%" viewBox="0 0 512 512" version="1.1" xmlns="http://www.w3.org/2000/svg" xmlns:xlink="http://www.w3.org/1999/xlink" xml:space="preserve" xmlns:serif="http://www.serif.com/" style="fill-rule:evenodd;clip-rule:evenodd;stroke-linejoin:round;stroke-miterlimit:1.41421;">
    <g transform="matrix(-6.12323e-17,-1,-1,6.12323e-17,511.979,511.979)">
        <path d="M488,48C488.11,139.221 451.826,226.82 387.245,291.245C355.913,322.659 318.779,347.693 277.908,364.957C236.359,382.538 191.738,391.719 146.623,391.968L114.666,368L146.71,343.967C224.284,343.476 298.594,312.302 353.3,257.3C408.97,201.934 440.212,126.515 440,48C440,34.834 450.834,24 464,24C477.166,24 488,34.834 488,48ZM195.2,478.4C198.315,474.246 200,469.192 200,464C200,456.452 196.439,449.329 190.4,444.8L88,368L190.4,291.2C196.439,286.671 200,279.548 200,272C200,258.834 189.166,248 176,248C170.808,248 165.754,249.685 161.6,252.8L33.6,348.8C27.561,353.329 24,360.452 24,368C24,375.548 27.561,382.671 33.6,387.2L161.6,483.2C172.133,491.1 187.3,488.933 195.2,478.4Z" style="fill-rule:nonzero;"/>
    </g>
</svg>
