<svg width="51" height="51" viewBox="0 0 51 51" fill="none" xmlns="http://www.w3.org/2000/svg">
<path d="M47.0293 1.48221C37.5865 1.47083 28.5186 5.22679 21.8496 11.9119C18.5978 15.1553 16.0064 18.9992 14.2193 23.23C12.3994 27.531 11.449 32.15 11.4232 36.8201L13.9043 40.1281L16.3921 36.8111C16.4429 28.7809 19.6699 21.0887 25.3635 15.4258C31.0947 9.66305 38.9018 6.42902 47.0293 6.45096C48.3922 6.45096 49.5137 5.32947 49.5137 3.96659C49.5137 2.6037 48.3922 1.48221 47.0293 1.48221ZM2.47618 31.7916C2.90618 31.4691 3.42935 31.2947 3.9668 31.2947C4.74814 31.2947 5.48548 31.6633 5.9543 32.2885L13.9043 42.8885L21.8543 32.2885C22.3231 31.6633 23.0605 31.2947 23.8418 31.2947C25.2047 31.2947 26.3262 32.4162 26.3262 33.7791C26.3262 34.3165 26.1517 34.8397 25.8293 35.2697L15.8918 48.5197C15.423 49.1448 14.6856 49.5135 13.9043 49.5135C13.123 49.5135 12.3856 49.1448 11.9168 48.5197L1.9793 35.2697C1.16152 34.1794 1.38585 32.6094 2.47618 31.7916Z" fill="#C9240A"/>
<path fill-rule="evenodd" clip-rule="evenodd" d="M48.5137 3.96659C48.5137 4.77682 47.8405 5.45034 47.0304 5.45096C38.6372 5.42872 30.5752 8.76823 24.6562 14.7189C18.8553 20.4896 15.5341 28.2998 15.396 36.4726L13.9043 38.4615L12.4267 36.4913C12.4941 32.0672 13.4152 27.6965 15.1402 23.6197C16.877 19.5081 19.3956 15.7719 22.5558 12.62L22.5576 12.6182C29.0387 6.1214 37.8513 2.47115 47.0281 2.48221H47.0293C47.8399 2.48221 48.5137 3.15599 48.5137 3.96659ZM47.0293 7.45096C48.9445 7.45096 50.5137 5.88176 50.5137 3.96659C50.5137 2.05182 48.9451 0.482872 47.0305 0.482212C37.3219 0.470505 27.9991 4.33197 21.1422 11.2051C17.7995 14.5395 15.1356 18.4911 13.2983 22.8403C11.4571 27.1918 10.4814 31.8598 10.4253 36.5831L6.7543 31.6885C6.09661 30.8115 5.06286 30.2947 3.9668 30.2947C3.21293 30.2947 2.47927 30.5393 1.87624 30.9915C0.344124 32.1407 0.0301285 34.3375 1.1793 35.8697L11.1168 49.1197C11.1168 49.1197 11.1168 49.1197 11.1168 49.1197C11.7745 49.9967 12.8083 50.5135 13.9043 50.5135C15.0004 50.5135 16.0341 49.9967 16.6918 49.1197C16.6918 49.1197 16.6918 49.1197 16.6918 49.1197L26.6293 35.8697C27.0815 35.2667 27.3262 34.533 27.3262 33.7791C27.3262 31.8639 25.757 30.2947 23.8418 30.2947C22.7457 30.2947 21.712 30.8115 21.0543 31.6885L17.3947 36.5679C17.5084 28.8921 20.6212 21.5529 26.0687 16.1348L26.0725 16.1309C31.6154 10.5576 39.1662 7.42973 47.0266 7.45096L47.0293 7.45096ZM12.7168 47.9197L2.7793 34.6697C2.29293 34.0212 2.42765 33.078 3.07619 32.5916C3.33316 32.3989 3.6458 32.2947 3.9668 32.2947C4.43341 32.2947 4.87434 32.5152 5.15429 32.8884L13.9043 44.5551L22.6543 32.8885C22.9342 32.5152 23.3752 32.2947 23.8418 32.2947C24.6524 32.2947 25.3262 32.9685 25.3262 33.7791C25.3262 34.1001 25.222 34.4128 25.0293 34.6698L15.0918 47.9197C14.8119 48.293 14.3709 48.5135 13.9043 48.5135C13.4377 48.5135 12.9967 48.293 12.7168 47.9197Z" fill="#C9240A"/>
</svg>
