<?xml version="1.0" encoding="UTF-8" standalone="no"?>
<!DOCTYPE svg PUBLIC "-//W3C//DTD SVG 1.1//EN" "http://www.w3.org/Graphics/SVG/1.1/DTD/svg11.dtd">
<svg width="100%" height="100%" viewBox="0 0 513 513" version="1.1" xmlns="http://www.w3.org/2000/svg" xmlns:xlink="http://www.w3.org/1999/xlink" xml:space="preserve" xmlns:serif="http://www.serif.com/" style="fill-rule:evenodd;clip-rule:evenodd;stroke-linejoin:round;stroke-miterlimit:1.41421;">
    <g>
        <path d="M468.53,306.575C464.39,296.336 452.732,291.387 442.492,295.529C432.251,299.669 427.305,311.326 431.445,321.567L455,379.833L385.042,348.994C379.978,346.762 374.215,346.727 369.125,348.899C345.217,359.1 319.605,364.272 293.001,364.272C185.928,364.272 114.001,280.437 114.001,202.136C114.001,112.734 194.3,40 293.001,40C391.702,40 472.001,112.734 472.001,202.136C472.001,209.111 471.351,217.463 470.22,225.049C468.59,235.974 476.125,246.151 487.05,247.781C497.976,249.415 508.153,241.876 509.782,230.951C511.213,221.361 512.001,211.127 512.001,202.136C512.001,147.806 488.995,96.828 447.218,58.593C405.936,20.809 351.167,0 293.001,0C234.835,0 180.067,20.809 138.784,58.592C101.452,92.76 79.124,137.108 74.793,184.927C27.836,216.023 0.001,265.852 0.001,319.525C0.001,353.053 10.564,384.865 30.671,412.242L1.459,484.504C-1.592,492.05 0.235,500.693 6.08,506.359C9.889,510.053 14.908,512.001 20.005,512.001C22.728,512 25.474,511.445 28.068,510.301L112.297,473.171C133.485,481.058 155.882,485.051 179,485.051C179.5,485.051 179.991,485.012 180.482,484.976C213.919,484.723 246.426,475.928 274.58,459.469C299.798,444.725 320.542,424.471 335.085,400.552C349.284,398.002 363.162,394.15 376.632,389.001L483.933,436.301C486.528,437.444 489.273,438.001 491.996,438.001C497.093,438 502.113,436.052 505.922,432.359C511.767,426.693 513.594,418.051 510.543,410.504L468.53,306.575ZM179.002,445C178.729,445 178.463,445.03 178.192,445.041C157.77,444.937 138.114,440.923 119.757,433.091C114.668,430.918 108.905,430.953 103.841,433.186L57.004,453.832L72.113,416.457C74.906,409.548 73.625,401.658 68.791,395.987C49.956,373.89 40.001,347.451 40.001,319.525C40.001,287.564 53.446,257.281 76.97,234.319C84.294,274.244 104.959,312.436 136.132,342.438C174.923,379.771 226.233,401.399 281.638,404.003C255.626,429.608 218.402,445 179.002,445Z" style="fill:white;fill-rule:nonzero;"/>
        <circle cx="292.001" cy="203" r="20" style="fill:white;"/>
        <circle cx="372.001" cy="203" r="20" style="fill:white;"/>
        <circle cx="212.001" cy="203" r="20" style="fill:white;"/>
    </g>
</svg>
